<svg xmlns="http://www.w3.org/2000/svg" width="32" height="32" viewBox="0 0 32 32">
  <path d="M 30.29 12.14 c 0.7 2.62 0.7 5.02 0 7.64 L 28.78 20.68 16 16 29.03 11.34 Z" fill="#fefe33"/>
  <path d="M 19.78 1.69 c 2.62 0.7 4.7 1.9 6.62 3.82 L 26.49 7.03 16 16 18.51 2.39 Z" fill="#fb9902"/>
  <path d="M 26.41 5.51 c 1.92 1.92 3.12 3.99 3.82 6.62 L 16 16 Z" fill="#fabc02"/>
  <path d="M 5.51 5.51 C 7.43 3.59 9.5 2.39 12.14 1.69 L 13.67 2.63 16 16 5.49 7.09 Z" fill="#fe2712"/>
  <path d="M 12.14 1.69 c 2.62 -0.7 5.02 -0.7 7.64 0 L 16 16 Z" fill="#fd5308"/>
  <path d="M 1.69 19.78 c -0.7 -2.62 -0.7 -5.02 0 -7.64 L 3.33 11.01 16 16 3.31 20.68 Z" fill="#8601af"/>
  <path d="M 1.69 12.14 C 2.39 9.5 3.59 7.43 5.51 5.51 L 16 16 Z" fill="#a7194b"/>
  <path d="M 12.14 30.29 C 9.5 29.59 7.43 28.39 5.51 26.41 L 5.63 24.77 16 16 13.65 29.57 Z" fill="#0247fe"/>
  <path d="M 5.51 26.41 C 3.59 24.49 2.39 22.42 1.69 19.78 L 16 16 Z" fill="#3d01a4"/>
  <path d="M 26.41 26.41 c -1.92 1.92 -3.99 3.12 -6.62 3.82 L 18.32 29.23 16 16 26.38 24.89 Z" fill="#66b032"/>
  <path d="M 19.78 30.29 c -2.62 0.7 -5.02 0.7 -7.64 0 L 16 16 Z" fill="#0391ce"/>
  <path d="M 30.29 19.78 C 29.59 22.42 28.39 24.49 26.41 26.41 L 16 16 30.29 19.78 Z" fill="#d0ea2b"/>
  <circle cx="16" cy="16" r="9.09" fill="#ffffff"/>
</svg>